<svg width="64" height="64" viewBox="0 0 64 64" fill="none" xmlns="http://www.w3.org/2000/svg">
  <!-- Background circle with gradient -->
  <defs>
    <radialGradient id="bgGradient" cx="50%" cy="50%" r="50%">
      <stop offset="0%" style="stop-color:#ff6b6b;stop-opacity:1" />
      <stop offset="50%" style="stop-color:#ee5a52;stop-opacity:1" />
      <stop offset="100%" style="stop-color:#c44569;stop-opacity:1" />
    </radialGradient>
    <radialGradient id="innerGradient" cx="50%" cy="50%" r="40%">
      <stop offset="0%" style="stop-color:#ffd93d;stop-opacity:1" />
      <stop offset="70%" style="stop-color:#ff6b6b;stop-opacity:1" />
      <stop offset="100%" style="stop-color:#c44569;stop-opacity:1" />
    </radialGradient>
  </defs>
  
  <!-- Main circle background -->
  <circle cx="32" cy="32" r="30" fill="url(#bgGradient)" stroke="#fff" stroke-width="2"/>
  
  <!-- Grid pattern to represent game board -->
  <g stroke="#fff" stroke-width="1.5" opacity="0.3">
    <line x1="20" y1="12" x2="20" y2="52"/>
    <line x1="32" y1="12" x2="32" y2="52"/>
    <line x1="44" y1="12" x2="44" y2="52"/>
    <line x1="12" y1="20" x2="52" y2="20"/>
    <line x1="12" y1="32" x2="52" y2="32"/>
    <line x1="12" y1="44" x2="52" y2="44"/>
  </g>
  
  <!-- Central explosion effect -->
  <circle cx="32" cy="32" r="8" fill="url(#innerGradient)"/>
  
  <!-- Explosion rays -->
  <g stroke="#ffd93d" stroke-width="2" stroke-linecap="round">
    <line x1="32" y1="20" x2="32" y2="14" opacity="0.8"/>
    <line x1="32" y1="44" x2="32" y2="50" opacity="0.8"/>
    <line x1="20" y1="32" x2="14" y2="32" opacity="0.8"/>
    <line x1="44" y1="32" x2="50" y2="32" opacity="0.8"/>
    <line x1="23.5" y1="23.5" x2="19.5" y2="19.5" opacity="0.6"/>
    <line x1="40.5" y1="40.5" x2="44.5" y2="44.5" opacity="0.6"/>
    <line x1="40.5" y1="23.5" x2="44.5" y2="19.5" opacity="0.6"/>
    <line x1="23.5" y1="40.5" x2="19.5" y2="44.5" opacity="0.6"/>
  </g>
  
  <!-- Small orbs around the center -->
  <circle cx="26" cy="26" r="2" fill="#ffd93d" opacity="0.9"/>
  <circle cx="38" cy="26" r="2" fill="#ffd93d" opacity="0.9"/>
  <circle cx="26" cy="38" r="2" fill="#ffd93d" opacity="0.9"/>
  <circle cx="38" cy="38" r="2" fill="#ffd93d" opacity="0.9"/>
</svg>
